<svg xmlns="http://www.w3.org/2000/svg" width="1500" height="560" viewBox="0 0 1500 560" font-family="Nunito, Segoe UI, Arial, sans-serif" xmlns:c2pa="http://c2pa.org/manifest"><metadata><c2pa:manifest>AAAWgmp1bWIAAAAeanVtZGMycGEAEQAQgAAAqgA4m3EDYzJwYQAAABZcanVtYgAAAEdqdW1kYzJtYQARABCAAACqADibcQN1cm46YzJwYTo0ZDc3ZDgyNS05ZjNkLTQxNDYtOWNhMy1lYTg0N2JlMDhjN2UAAAADl2p1bWIAAAApanVtZGMyYXMAEQAQgAAAqgA4m3EDYzJwYS5hc3NlcnRpb25zAAAAALxqdW1iAAAARGp1bWRjYm9yABEAEIAAAKoAOJtxE2MycGEuaW5ncmVkaWVudC52MwAAAAAYYzJzaL1j50r9iVEtv9t9cp6lb28AAABwY2JvcqNpZGM6Zm9ybWF0bWltYWdlL3N2Zyt4bWxqaW5zdGFuY2VJRHgseG1wOmlpZDphYjFiYTMxNy00NWRmLTRiM2ItOGE4NC01OTU1YmYwZjRkOGFscmVsYXRpb25zaGlwaHBhcmVudE9mAAAB4mp1bWIAAABBanVtZGNib3IAEQAQgAAAqgA4m3ETYzJwYS5hY3Rpb25zLnYyAAAAABhjMnNognWc4vtYMKa6JjirTcYc2gAAAZljYm9yomdhY3Rpb25zgqJmYWN0aW9ua2MycGEub3BlbmVkanBhcmFtZXRlcnOha2luZ3JlZGllbnRzgaJjdXJseC1zZWxmI2p1bWJmPWMycGEuYXNzZXJ0aW9ucy9jMnBhLmluZ3JlZGllbnQudjNkaGFzaFggjwAhefLi+4kVxolZOY/qezBdbsKyD7wnEZxjmgoR4H6kZmFjdGlvbngdY29tLmFudGhyb3BpYy5jbGF1ZGUucHJvdmlkZWRqcGFyYW1ldGVyc6F4H2NvbS5hbnRocm9waWMub3JpZ2luLWNvbmZpZGVuY2VndW5rbm93bmtkZXNjcmlwdGlvbnhmQ2xhdWRlIHByb3ZpZGVkIHRoaXMgZmlsZSBhdCB0aGUgcmVxdWVzdCBvZiBhIHVzZXIgYW5kIG1heSBoYXZlIGNyZWF0ZWQgb3IgbW9kaWZpZWQgdGhlIGZpbGUgY29udGVudHMubXNvZnR3YXJlQWdlbnShZG5hbWVmQ2xhdWRlcmFsbEFjdGlvbnNJbmNsdWRlZPUAAADIanVtYgAAAEBqdW1kY2JvcgARABCAAACqADibcRNjMnBhLmhhc2guZGF0YQAAAAAYYzJzaKy3zyxkbLecR+FUikIU85wAAACAY2JvcqVjYWxnZnNoYTI1NmNwYWRNAAAAAAAAAAAAAAAAAGRoYXNoWCBWxQJwYXr4qxn756WAe+/352l5mX9+ko33QxQvPQgFfmRuYW1lbmp1bWJmIG1hbmlmZXN0amV4Y2x1c2lvbnOBomVzdGFydBjKZmxlbmd0aBkeBAAAAj5qdW1iAAAAJ2p1bWRjMmNsABEAEIAAAKoAOJtxA2MycGEuY2xhaW0udjIAAAACD2Nib3KlY2FsZ2ZzaGEyNTZpc2lnbmF0dXJleE1zZWxmI2p1bWJmPS9jMnBhL3VybjpjMnBhOjRkNzdkODI1LTlmM2QtNDE0Ni05Y2EzLWVhODQ3YmUwOGM3ZS9jMnBhLnNpZ25hdHVyZWppbnN0YW5jZUlEeCx4bXA6aWlkOjMxOGY4NWI2LWMwZDUtNGU0MS1hYmQyLTI2ODFlY2JjZjY4YnJjcmVhdGVkX2Fzc2VydGlvbnODomN1cmx4LXNlbGYjanVtYmY9YzJwYS5hc3NlcnRpb25zL2MycGEuaW5ncmVkaWVudC52M2RoYXNoWCCPACF58uL7iRXGiVk5j+p7MF1uwrIPvCcRnGOaChHgfqJjdXJseCpzZWxmI2p1bWJmPWMycGEuYXNzZXJ0aW9ucy9jMnBhLmFjdGlvbnMudjJkaGFzaFggUwH4Nyul7KbJIJ8To5hxmM24K8HBPKIIbt5FW0RAzp+iY3VybHgpc2VsZiNqdW1iZj1jMnBhLmFzc2VydGlvbnMvYzJwYS5oYXNoLmRhdGFkaGFzaFggNYQDYt3aPNy/O2eMjTsT+p2C7BLH4G0+IfbxAxq3LZl0Y2xhaW1fZ2VuZXJhdG9yX2luZm+jZG5hbWVvQW50aHJvcGljIEZpbGVzZ3ZlcnNpb25lMS4wLjBrc3BlY1ZlcnNpb25lMi40LjAAABA4anVtYgAAAChqdW1kYzJjcwARABCAAACqADibcQNjMnBhLnNpZ25hdHVyZQAAABAIY2JvctKEWQISogEmGCFZAgowggIGMIIBjaADAgECAhRA5aAK7sI50L64g/oGQgU9Z1UTADAKBggqhkjOPQQDAzBJMRcwFQYDVQQKEw5BbnRocm9waWMsIFBCQzEuMCwGA1UEAxMlQW50aHJvcGljIENvbnRlbnQgQ3JlZGVudGlhbHMgUm9vdCBDQTAeFw0yNjA4MDcxODQzNTZaFw0yODA4MDYxOTQzNTZaMEQxFzAVBgNVBAoTDkFudGhyb3BpYywgUEJDMSkwJwYDVQQDEyBBbnRocm9waWMgQ2xhdWRlIENvbnRlbnQgU2lnbmluZzBZMBMGByqGSM49AgEGCCqGSM49AwEHA0IABJh6CmvLUBgFFNU0vUKlOVtE6djd17L5SuwX0LemFisBM3dkd/3cyjxFA3Qo5S46fX0/ihY0VZ7mfb9KF703t5OjWDBWMA4GA1UdDwEB/wQEAwIHgDAVBgNVHSUEDjAMBgorBgEEAYPoXgIBMAwGA1UdEwEB/wQCMAAwHwYDVR0jBBgwFoAUzlHiBIFOZFsj+OPEz5o+nMHXXMIwCgYIKoZIzj0EAwMDZwAwZAIwMXMdFJ4BetLLVY7ORuE9noqbbAZOZn/aArXyTwFAZfKrPzxF2vPoJNf1+UCdg1XGAjBwX1zd9WGqYkqmL5SFqw1QySjr1zJfpJM9+1rdDwSPLMOPOjKuiXjoU/pUUeG9RwmhY3BhZFkNngAAAAAAAAAAAAAAAAAAAAAAAAAAAAAAAAAAAAAAAAAAAAAAAAAAAAAAAAAAAAAAAAAAAAAAAAAAAAAAAAAAAAAAAAAAAAAAAAAAAAAAAAAAAAAAAAAAAAAAAAAAAAAAAAAAAAAAAAAAAAAAAAAAAAAAAAAAAAAAAAAAAAAAAAAAAAAAAAAAAAAAAAAAAAAAAAAAAAAAAAAAAAAAAAAAAAAAAAAAAAAAAAAAAAAAAAAAAAAAAAAAAAAAAAAAAAAAAAAAAAAAAAAAAAAAAAAAAAAAAAAAAAAAAAAAAAAAAAAAAAAAAAAAAAAAAAAAAAAAAAAAAAAAAAAAAAAAAAAAAAAAAAAAAAAAAAAAAAAAAAAAAAAAAAAAAAAAAAAAAAAAAAAAAAAAAAAAAAAAAAAAAAAAAAAAAAAAAAAAAAAAAAAAAAAAAAAAAAAAAAAAAAAAAAAAAAAAAAAAAAAAAAAAAAAAAAAAAAAAAAAAAAAAAAAAAAAAAAAAAAAAAAAAAAAAAAAAAAAAAAAAAAAAAAAAAAAAAAAAAAAAAAAAAAAAAAAAAAAAAAAAAAAAAAAAAAAAAAAAAAAAAAAAAAAAAAAAAAAAAAAAAAAAAAAAAAAAAAAAAAAAAAAAAAAAAAAAAAAAAAAAAAAAAAAAAAAAAAAAAAAAAAAAAAAAAAAAAAAAAAAAAAAAAAAAAAAAAAAAAAAAAAAAAAAAAAAAAAAAAAAAAAAAAAAAAAAAAAAAAAAAAAAAAAAAAAAAAAAAAAAAAAAAAAAAAAAAAAAAAAAAAAAAAAAAAAAAAAAAAAAAAAAAAAAAAAAAAAAAAAAAAAAAAAAAAAAAAAAAAAAAAAAAAAAAAAAAAAAAAAAAAAAAAAAAAAAAAAAAAAAAAAAAAAAAAAAAAAAAAAAAAAAAAAAAAAAAAAAAAAAAAAAAAAAAAAAAAAAAAAAAAAAAAAAAAAAAAAAAAAAAAAAAAAAAAAAAAAAAAAAAAAAAAAAAAAAAAAAAAAAAAAAAAAAAAAAAAAAAAAAAAAAAAAAAAAAAAAAAAAAAAAAAAAAAAAAAAAAAAAAAAAAAAAAAAAAAAAAAAAAAAAAAAAAAAAAAAAAAAAAAAAAAAAAAAAAAAAAAAAAAAAAAAAAAAAAAAAAAAAAAAAAAAAAAAAAAAAAAAAAAAAAAAAAAAAAAAAAAAAAAAAAAAAAAAAAAAAAAAAAAAAAAAAAAAAAAAAAAAAAAAAAAAAAAAAAAAAAAAAAAAAAAAAAAAAAAAAAAAAAAAAAAAAAAAAAAAAAAAAAAAAAAAAAAAAAAAAAAAAAAAAAAAAAAAAAAAAAAAAAAAAAAAAAAAAAAAAAAAAAAAAAAAAAAAAAAAAAAAAAAAAAAAAAAAAAAAAAAAAAAAAAAAAAAAAAAAAAAAAAAAAAAAAAAAAAAAAAAAAAAAAAAAAAAAAAAAAAAAAAAAAAAAAAAAAAAAAAAAAAAAAAAAAAAAAAAAAAAAAAAAAAAAAAAAAAAAAAAAAAAAAAAAAAAAAAAAAAAAAAAAAAAAAAAAAAAAAAAAAAAAAAAAAAAAAAAAAAAAAAAAAAAAAAAAAAAAAAAAAAAAAAAAAAAAAAAAAAAAAAAAAAAAAAAAAAAAAAAAAAAAAAAAAAAAAAAAAAAAAAAAAAAAAAAAAAAAAAAAAAAAAAAAAAAAAAAAAAAAAAAAAAAAAAAAAAAAAAAAAAAAAAAAAAAAAAAAAAAAAAAAAAAAAAAAAAAAAAAAAAAAAAAAAAAAAAAAAAAAAAAAAAAAAAAAAAAAAAAAAAAAAAAAAAAAAAAAAAAAAAAAAAAAAAAAAAAAAAAAAAAAAAAAAAAAAAAAAAAAAAAAAAAAAAAAAAAAAAAAAAAAAAAAAAAAAAAAAAAAAAAAAAAAAAAAAAAAAAAAAAAAAAAAAAAAAAAAAAAAAAAAAAAAAAAAAAAAAAAAAAAAAAAAAAAAAAAAAAAAAAAAAAAAAAAAAAAAAAAAAAAAAAAAAAAAAAAAAAAAAAAAAAAAAAAAAAAAAAAAAAAAAAAAAAAAAAAAAAAAAAAAAAAAAAAAAAAAAAAAAAAAAAAAAAAAAAAAAAAAAAAAAAAAAAAAAAAAAAAAAAAAAAAAAAAAAAAAAAAAAAAAAAAAAAAAAAAAAAAAAAAAAAAAAAAAAAAAAAAAAAAAAAAAAAAAAAAAAAAAAAAAAAAAAAAAAAAAAAAAAAAAAAAAAAAAAAAAAAAAAAAAAAAAAAAAAAAAAAAAAAAAAAAAAAAAAAAAAAAAAAAAAAAAAAAAAAAAAAAAAAAAAAAAAAAAAAAAAAAAAAAAAAAAAAAAAAAAAAAAAAAAAAAAAAAAAAAAAAAAAAAAAAAAAAAAAAAAAAAAAAAAAAAAAAAAAAAAAAAAAAAAAAAAAAAAAAAAAAAAAAAAAAAAAAAAAAAAAAAAAAAAAAAAAAAAAAAAAAAAAAAAAAAAAAAAAAAAAAAAAAAAAAAAAAAAAAAAAAAAAAAAAAAAAAAAAAAAAAAAAAAAAAAAAAAAAAAAAAAAAAAAAAAAAAAAAAAAAAAAAAAAAAAAAAAAAAAAAAAAAAAAAAAAAAAAAAAAAAAAAAAAAAAAAAAAAAAAAAAAAAAAAAAAAAAAAAAAAAAAAAAAAAAAAAAAAAAAAAAAAAAAAAAAAAAAAAAAAAAAAAAAAAAAAAAAAAAAAAAAAAAAAAAAAAAAAAAAAAAAAAAAAAAAAAAAAAAAAAAAAAAAAAAAAAAAAAAAAAAAAAAAAAAAAAAAAAAAAAAAAAAAAAAAAAAAAAAAAAAAAAAAAAAAAAAAAAAAAAAAAAAAAAAAAAAAAAAAAAAAAAAAAAAAAAAAAAAAAAAAAAAAAAAAAAAAAAAAAAAAAAAAAAAAAAAAAAAAAAAAAAAAAAAAAAAAAAAAAAAAAAAAAAAAAAAAAAAAAAAAAAAAAAAAAAAAAAAAAAAAAAAAAAAAAAAAAAAAAAAAAAAAAAAAAAAAAAAAAAAAAAAAAAAAAAAAAAAAAAAAAAAAAAAAAAAAAAAAAAAAAAAAAAAAAAAAAAAAAAAAAAAAAAAAAAAAAAAAAAAAAAAAAAAAAAAAAAAAAAAAAAAAAAAAAAAAAAAAAAAAAAAAAAAAAAAAAAAAAAAAAAAAAAAAAAAAAAAAAAAAAAAAAAAAAAAAAAAAAAAAAAAAAAAAAAAAAAAAAAAAAAAAAAAAAAAAAAAAAAAAAAAAAAAAAAAAAAAAAAAAAAAAAAAAAAAAAAAAAAAAAAAAAAAAAAAAAAAAAAAAAAAAAAAAAAAAAAAAAAAAAAAAAAAAAAAAAAAAAAAAAAAAAAAAAAAAAAAAAAAAAAAAAAAAAAAAAAAAAAAAAAAAAAAAAAAAAAAAAAAAAAAAAAAAAAAAAAAAAAAAAAAAAAAAAAAAAAAAAAAAAAAAAAAAAAAAAAAAAAAAAAAAAAAAAAAAAAAAAAAAAAAAAAAAAAAAAAAAAAAAAAAAAAAAAAAAAAAAAAAAAAAAAAAAAAAAAAAAAAAAAAAAAAAAAAAAAAAAAAAAAAAAAAAAAAAAAAAAAAAAAAAAAAAAAAAAAAAAAAAAAAAAAAAAAAAAAAAAAAAAAAAAAAAAAAAAAAAAAAAAAAAAAAAAAAAAAAAAAAAAAAAAAAAAAAAAAAAAAAAAAAAAAAAAAAAAAAAAAAAAAAAAAAAAAAAAAAAAAAAAAAAAAAAAAAAAAAAAAAAAAAAAAAAAAAAAAAAAAAAAAAAAAAAAAAAAAAAAAAAAAAAAAAAAAAAAAAAAAAAAAAAAAAAAAAAAAAAAAAAAAAAAAAAAAAAAAAAAAAAAAAAAAAAAAAAAAAAAAAAAAAAAAAAAAAAAAAAAAAAAAAAAAAAAAAAAAAAAAAAAAAAAAAAAAAAAAAAAAAAAAAAAAAAAAAAAAAAAAAAAAAAAAAAAAAAAAAAAAAAAAAAAAAAAAAAAAAAAAAAAAAAAAAAAAAAAAAAAAAAAAAAAAAAAAAAAAAAAAAAAAAAAAAAAAAAAAAAAAAAAAAAAAAAAAAAAAAAAAAAAAAAAAAAAAAAAAAAAAAAAAAAAAAAAAAAAAAAAAAAAAAAAAAAAAAAAAAAAAAAAAAAAAAAAAAAAAAAAAAAAAAAAAAAAAAAAAAAAAAAAAAAAAAAAAAAAAAAAAAAAAAAAAAAAAAAAAAAAAAAAAAAAAAAAAAAAAAAAAAAAAAAAAAAAAAAAAAAAAAAAAAAAAAAAAAAAAAAAAAAAAAAAAAAAAAAAAAAAAAAAAAAAAAAAAAAAAAAAAAAAAAAAAAAAAAAAAAAAAAAAAAAAAAAAAAAAAAAAAAAAAAAAAAAAAAAAAAAAAAAAAAAAAAAAAAAAAAAAAAAAAAAAAAAAAAAAAAAAAAAAAAAAAAAAAAAAAAAAAAAAAAAAAAAAAAAAAAAAAAAAAAAAAAAAAAAAAAAAAAAAAAAAAAAAAAAAAAAAAAAAAAAAAAAAAAAAAAAAAAAAAAAAAAAAAAAAAAAAAAAAAAAAAAAAAAAAAAAAAAAAAAAAAAAAAAAAAAAAAAAAAAAAAAAAAAAAAAAAAAAAAAAAAAAAAAAAAAAAAAAAAAAAAAAAAAAAAAAAAAAAAAAAAAAAAAAAAAAAAAAAAAAAAAAAAAAAAAAAAAAAAAAAAAAAAAAAAAAAAAAAAAAAAAAAPZYQAQdahPtjrOibjq9rhDanyGq5eKuraAkDMnlRRxa+OJoB8WDCjIQn5yg76IZFXT5dv+71YoP1YIznDko+EiEtkk=</c2pa:manifest></metadata><defs><filter id="lift" x="-30%" y="-30%" width="160%" height="160%"><feDropShadow dx="0" dy="10" stdDeviation="7" flood-color="#000" flood-opacity="0.28"/></filter><filter id="glow" x="-30%" y="-30%" width="160%" height="160%"><feGaussianBlur stdDeviation="4"/></filter></defs><rect width="1500" height="560" fill="#FFFFFF"/><text x="40" y="46" font-size="22" font-weight="800" fill="#2B2D42">Interaction storyboard · drag, lift, snap</text><text x="40" y="68" font-size="14" fill="#8A8FA8">Little boat · level 2. The moment-to-moment feel of one move (timings are targets for the implementation).</text>
<rect x="40" y="90" width="350" height="440" rx="22" fill="#FBF8F2" stroke="#E6E1D6"/>
<text x="60" y="124" font-size="18" font-weight="800" fill="#2B2D42">1 · Touch</text>
<rect x="60" y="140" width="310" height="200" rx="14" fill="#FFFFFF"/>
<polygon points="215.0,160.0 215.0,288.0 151.0,224.0" fill="#D9DCE8" stroke="#8A8FA8" stroke-width="1.2" stroke-linejoin="round"/>
<polygon points="215.0,224.0 215.0,288.0 279.0,288.0" fill="#D9DCE8" stroke="#8A8FA8" stroke-width="1.2" stroke-linejoin="round"/>
<polygon points="151.0,288.0 215.0,288.0 247.0,320.0 183.0,320.0" fill="#D9DCE8" stroke="#8A8FA8" stroke-width="1.2" stroke-linejoin="round"/>
<polygon points="215.0,288.0 279.0,288.0 247.0,320.0" fill="#D9DCE8" stroke="#8A8FA8" stroke-width="1.2" stroke-linejoin="round"/>
<polygon points="215.0,160.0 215.0,288.0 151.0,224.0" fill="#E8505B" stroke="#FFFFFF" stroke-width="2" stroke-linejoin="round" />
<polygon points="151.0,288.0 215.0,288.0 247.0,320.0 183.0,320.0" fill="#FF7AB8" stroke="#FFFFFF" stroke-width="2" stroke-linejoin="round" />
<rect x="60" y="352" width="310" height="86.0" rx="22" fill="#F1ECE1"/>
<rect x="93.2" y="360.0" width="70.0" height="70.0" rx="16" fill="#FFFFFF" stroke="#E2DBCB"/>
<polygon points="142.0,367.5 142.0,422.5 114.5,395.0" fill="none" stroke="#D5CDBB" stroke-width="2" stroke-dasharray="5 4" stroke-linejoin="round"/>
<rect x="171.2" y="360.0" width="53.0" height="70.0" rx="16" fill="#FFFFFF" stroke="#E2DBCB"/>
<polygon points="184.0,408.8 184.0,381.2 211.5,408.8" fill="#F9A826" stroke="#FFFFFF" stroke-width="1.5" stroke-linejoin="round"/>
<rect x="168.2" y="357.0" width="59.0" height="76.0" rx="18" fill="none" stroke="#3D8BFD" stroke-width="3"/>
<rect x="232.3" y="360.0" width="55.5" height="70.0" rx="16" fill="#FFFFFF" stroke="#E2DBCB"/>
<polygon points="280.6,401.9 253.1,401.9 239.4,388.1 266.9,388.1" fill="none" stroke="#D5CDBB" stroke-width="2" stroke-dasharray="5 4" stroke-linejoin="round"/>
<rect x="295.8" y="360.0" width="41.0" height="70.0" rx="16" fill="#FFFFFF" stroke="#E2DBCB"/>
<polygon points="302.5,388.1 330.0,388.1 316.3,401.9" fill="#2DBE7E" stroke="#FFFFFF" stroke-width="1.5" stroke-linejoin="round"/>
<g opacity="0.9"><circle cx="197.75" cy="401.0" r="12.8" fill="#3D8BFD" opacity="0.18"/><path d="M188.95,449.0 L188.95,402.6 A8.8,8.8 0 0 1 206.55,402.6 L206.55,449.0 Z" fill="#F4C9A8" stroke="#C99A78" stroke-width="1.5"/><path d="M192.95,404.2 A4.800000000000001,4.800000000000001 0 0 1 202.55,404.2 L202.55,409.0 L192.95,409.0 Z" fill="#FBE3D2"/></g>
<text x="60" y="462" font-size="14" fill="#2B2D42">Finger down on a tray cell.</text>
<text x="60" y="482" font-size="14" fill="#2B2D42">Piece is picked at once (no long-press).</text>
<text x="60" y="502" font-size="14" fill="#2B2D42">Soft ‘pop’ haptic + sound.</text>
<rect x="402" y="90" width="350" height="440" rx="22" fill="#FBF8F2" stroke="#E6E1D6"/>
<text x="422" y="124" font-size="18" font-weight="800" fill="#2B2D42">2 · Lift & grow</text>
<rect x="422" y="140" width="310" height="200" rx="14" fill="#FFFFFF"/>
<polygon points="577.0,160.0 577.0,288.0 513.0,224.0" fill="#D9DCE8" stroke="#8A8FA8" stroke-width="1.2" stroke-linejoin="round"/>
<polygon points="577.0,224.0 577.0,288.0 641.0,288.0" fill="#D9DCE8" stroke="#8A8FA8" stroke-width="1.2" stroke-linejoin="round"/>
<polygon points="513.0,288.0 577.0,288.0 609.0,320.0 545.0,320.0" fill="#D9DCE8" stroke="#8A8FA8" stroke-width="1.2" stroke-linejoin="round"/>
<polygon points="577.0,288.0 641.0,288.0 609.0,320.0" fill="#D9DCE8" stroke="#8A8FA8" stroke-width="1.2" stroke-linejoin="round"/>
<polygon points="577.0,160.0 577.0,288.0 513.0,224.0" fill="#E8505B" stroke="#FFFFFF" stroke-width="2" stroke-linejoin="round" />
<polygon points="513.0,288.0 577.0,288.0 609.0,320.0 545.0,320.0" fill="#FF7AB8" stroke="#FFFFFF" stroke-width="2" stroke-linejoin="round" />
<rect x="422" y="352" width="310" height="86.0" rx="22" fill="#F1ECE1"/>
<rect x="455.2" y="360.0" width="70.0" height="70.0" rx="16" fill="#FFFFFF" stroke="#E2DBCB"/>
<polygon points="504.0,367.5 504.0,422.5 476.5,395.0" fill="none" stroke="#D5CDBB" stroke-width="2" stroke-dasharray="5 4" stroke-linejoin="round"/>
<rect x="533.2" y="360.0" width="53.0" height="70.0" rx="16" fill="#FFFFFF" stroke="#E2DBCB"/>
<polygon points="546.0,408.8 546.0,381.2 573.5,408.8" fill="none" stroke="#D5CDBB" stroke-width="2" stroke-dasharray="5 4" stroke-linejoin="round"/>
<rect x="594.3" y="360.0" width="55.5" height="70.0" rx="16" fill="#FFFFFF" stroke="#E2DBCB"/>
<polygon points="642.6,401.9 615.1,401.9 601.4,388.1 628.9,388.1" fill="none" stroke="#D5CDBB" stroke-width="2" stroke-dasharray="5 4" stroke-linejoin="round"/>
<rect x="657.8" y="360.0" width="41.0" height="70.0" rx="16" fill="#FFFFFF" stroke="#E2DBCB"/>
<polygon points="664.5,388.1 692.0,388.1 678.3,401.9" fill="#2DBE7E" stroke="#FFFFFF" stroke-width="1.5" stroke-linejoin="round"/>
<polygon points="537.8,322.0 537.8,258.0 601.8,322.0" fill="#F9A826" stroke="#FFFFFF" stroke-width="2" filter="url(#lift)"/>
<polygon points="540.9,367.9 540.9,322.1 586.6,367.9" fill="#F9A826" opacity="0.25"/>
<g opacity="0.9"><circle cx="569.75" cy="344.0" r="12.8" fill="#3D8BFD" opacity="0.18"/><path d="M560.95,392.0 L560.95,345.6 A8.8,8.8 0 0 1 578.55,345.6 L578.55,392.0 Z" fill="#F4C9A8" stroke="#C99A78" stroke-width="1.5"/><path d="M564.95,347.2 A4.800000000000001,4.800000000000001 0 0 1 574.55,347.2 L574.55,352.0 L564.95,352.0 Z" fill="#FBE3D2"/></g>
<text x="422" y="462" font-size="14" fill="#2B2D42">Piece grows from tray size to board</text>
<text x="422" y="482" font-size="14" fill="#2B2D42">size in 120 ms and floats ~48 dp</text>
<text x="422" y="502" font-size="14" fill="#2B2D42">above the finger with a shadow.</text>
<rect x="764" y="90" width="350" height="440" rx="22" fill="#FBF8F2" stroke="#E6E1D6"/>
<text x="784" y="124" font-size="18" font-weight="800" fill="#2B2D42">3 · Near its slot</text>
<rect x="784" y="140" width="310" height="200" rx="14" fill="#FFFFFF"/>
<polygon points="939.0,160.0 939.0,288.0 875.0,224.0" fill="#D9DCE8" stroke="#8A8FA8" stroke-width="1.2" stroke-linejoin="round"/>
<polygon points="939.0,224.0 939.0,288.0 1003.0,288.0" fill="#D9DCE8" stroke="#8A8FA8" stroke-width="1.2" stroke-linejoin="round"/>
<polygon points="875.0,288.0 939.0,288.0 971.0,320.0 907.0,320.0" fill="#D9DCE8" stroke="#8A8FA8" stroke-width="1.2" stroke-linejoin="round"/>
<polygon points="939.0,288.0 1003.0,288.0 971.0,320.0" fill="#D9DCE8" stroke="#8A8FA8" stroke-width="1.2" stroke-linejoin="round"/>
<polygon points="939.0,160.0 939.0,288.0 875.0,224.0" fill="#E8505B" stroke="#FFFFFF" stroke-width="2" stroke-linejoin="round" />
<polygon points="875.0,288.0 939.0,288.0 971.0,320.0 907.0,320.0" fill="#FF7AB8" stroke="#FFFFFF" stroke-width="2" stroke-linejoin="round" />
<rect x="784" y="352" width="310" height="86.0" rx="22" fill="#F1ECE1"/>
<rect x="817.2" y="360.0" width="70.0" height="70.0" rx="16" fill="#FFFFFF" stroke="#E2DBCB"/>
<polygon points="866.0,367.5 866.0,422.5 838.5,395.0" fill="none" stroke="#D5CDBB" stroke-width="2" stroke-dasharray="5 4" stroke-linejoin="round"/>
<rect x="895.2" y="360.0" width="53.0" height="70.0" rx="16" fill="#FFFFFF" stroke="#E2DBCB"/>
<polygon points="908.0,408.8 908.0,381.2 935.5,408.8" fill="none" stroke="#D5CDBB" stroke-width="2" stroke-dasharray="5 4" stroke-linejoin="round"/>
<rect x="956.3" y="360.0" width="55.5" height="70.0" rx="16" fill="#FFFFFF" stroke="#E2DBCB"/>
<polygon points="1004.6,401.9 977.1,401.9 963.4,388.1 990.9,388.1" fill="none" stroke="#D5CDBB" stroke-width="2" stroke-dasharray="5 4" stroke-linejoin="round"/>
<rect x="1019.8" y="360.0" width="41.0" height="70.0" rx="16" fill="#FFFFFF" stroke="#E2DBCB"/>
<polygon points="1026.5,388.1 1054.0,388.1 1040.3,401.9" fill="#2DBE7E" stroke="#FFFFFF" stroke-width="1.5" stroke-linejoin="round"/>
<polygon points="939.0,224.0 939.0,288.0 1003.0,288.0" fill="none" stroke="#F9A826" stroke-width="8" filter="url(#glow)"/>
<polygon points="939.0,224.0 939.0,288.0 1003.0,288.0" fill="none" stroke="#F9A826" stroke-width="3"/>
<polygon points="961.0,250.0 961.0,314.0 1025.0,314.0" fill="#F9A826" stroke="#FFFFFF" stroke-width="2" stroke-linejoin="round" filter="url(#lift)"/>
<g opacity="0.9"><circle cx="987.3333333333334" cy="344.0" r="12.8" fill="#3D8BFD" opacity="0.18"/><path d="M978.5333333333334,392.0 L978.5333333333334,345.6 A8.8,8.8 0 0 1 996.1333333333333,345.6 L996.1333333333333,392.0 Z" fill="#F4C9A8" stroke="#C99A78" stroke-width="1.5"/><path d="M982.5333333333334,347.2 A4.800000000000001,4.800000000000001 0 0 1 992.1333333333333,347.2 L992.1333333333333,352.0 L982.5333333333334,352.0 Z" fill="#FBE3D2"/></g>
<text x="784" y="462" font-size="14" fill="#2B2D42">Within snap range the matching slot</text>
<text x="784" y="482" font-size="14" fill="#2B2D42">glows. Nothing jumps yet, so the</text>
<text x="784" y="502" font-size="14" fill="#2B2D42">child keeps control.</text>
<rect x="1126" y="90" width="350" height="440" rx="22" fill="#FBF8F2" stroke="#E6E1D6"/>
<text x="1146" y="124" font-size="18" font-weight="800" fill="#2B2D42">4 · Drop → snap</text>
<rect x="1146" y="140" width="310" height="200" rx="14" fill="#FFFFFF"/>
<polygon points="1301.0,160.0 1301.0,288.0 1237.0,224.0" fill="#D9DCE8" stroke="#8A8FA8" stroke-width="1.2" stroke-linejoin="round"/>
<polygon points="1301.0,224.0 1301.0,288.0 1365.0,288.0" fill="#D9DCE8" stroke="#8A8FA8" stroke-width="1.2" stroke-linejoin="round"/>
<polygon points="1237.0,288.0 1301.0,288.0 1333.0,320.0 1269.0,320.0" fill="#D9DCE8" stroke="#8A8FA8" stroke-width="1.2" stroke-linejoin="round"/>
<polygon points="1301.0,288.0 1365.0,288.0 1333.0,320.0" fill="#D9DCE8" stroke="#8A8FA8" stroke-width="1.2" stroke-linejoin="round"/>
<polygon points="1301.0,160.0 1301.0,288.0 1237.0,224.0" fill="#E8505B" stroke="#FFFFFF" stroke-width="2" stroke-linejoin="round" />
<polygon points="1237.0,288.0 1301.0,288.0 1333.0,320.0 1269.0,320.0" fill="#FF7AB8" stroke="#FFFFFF" stroke-width="2" stroke-linejoin="round" />
<rect x="1146" y="352" width="310" height="86.0" rx="22" fill="#F1ECE1"/>
<rect x="1179.2" y="360.0" width="70.0" height="70.0" rx="16" fill="#FFFFFF" stroke="#E2DBCB"/>
<polygon points="1228.0,367.5 1228.0,422.5 1200.5,395.0" fill="none" stroke="#D5CDBB" stroke-width="2" stroke-dasharray="5 4" stroke-linejoin="round"/>
<rect x="1257.2" y="360.0" width="53.0" height="70.0" rx="16" fill="#FFFFFF" stroke="#E2DBCB"/>
<polygon points="1270.0,408.8 1270.0,381.2 1297.5,408.8" fill="none" stroke="#D5CDBB" stroke-width="2" stroke-dasharray="5 4" stroke-linejoin="round"/>
<rect x="1318.3" y="360.0" width="55.5" height="70.0" rx="16" fill="#FFFFFF" stroke="#E2DBCB"/>
<polygon points="1366.6,401.9 1339.1,401.9 1325.4,388.1 1352.9,388.1" fill="none" stroke="#D5CDBB" stroke-width="2" stroke-dasharray="5 4" stroke-linejoin="round"/>
<rect x="1381.8" y="360.0" width="41.0" height="70.0" rx="16" fill="#FFFFFF" stroke="#E2DBCB"/>
<polygon points="1388.5,388.1 1416.0,388.1 1402.3,401.9" fill="#2DBE7E" stroke="#FFFFFF" stroke-width="1.5" stroke-linejoin="round"/>
<polygon points="1301.0,224.0 1301.0,288.0 1365.0,288.0" fill="#F9A826" stroke="#FFFFFF" stroke-width="2" stroke-linejoin="round" />
<line x1="1356.3" y1="266.7" x2="1368.3" y2="266.7" stroke="#FFD23F" stroke-width="4" stroke-linecap="round"/>
<line x1="1346.4" y1="290.7" x2="1354.9" y2="299.2" stroke="#FFD23F" stroke-width="4" stroke-linecap="round"/>
<line x1="1322.3" y1="300.7" x2="1322.3" y2="312.7" stroke="#FFD23F" stroke-width="4" stroke-linecap="round"/>
<line x1="1298.3" y1="290.7" x2="1289.8" y2="299.2" stroke="#FFD23F" stroke-width="4" stroke-linecap="round"/>
<line x1="1288.3" y1="266.7" x2="1276.3" y2="266.7" stroke="#FFD23F" stroke-width="4" stroke-linecap="round"/>
<line x1="1298.3" y1="242.6" x2="1289.8" y2="234.1" stroke="#FFD23F" stroke-width="4" stroke-linecap="round"/>
<line x1="1322.3" y1="232.7" x2="1322.3" y2="220.7" stroke="#FFD23F" stroke-width="4" stroke-linecap="round"/>
<line x1="1346.4" y1="242.6" x2="1354.9" y2="234.1" stroke="#FFD23F" stroke-width="4" stroke-linecap="round"/>
<text x="1146" y="462" font-size="14" fill="#2B2D42">Release: the piece glides into the slot</text>
<text x="1146" y="482" font-size="14" fill="#2B2D42">(180 ms ease-out), click + sparkle.</text>
<text x="1146" y="502" font-size="14" fill="#2B2D42">Wrong place → glides home, soft ‘boing’.</text></svg>